<svg width="1291" height="123" viewBox="0 0 1291 123" fill="none" xmlns="http://www.w3.org/2000/svg">
<path d="M1257.09 53.9762C1257.46 53.6013 1257.97 53.3906 1258.5 53.3906C1259.03 53.3906 1259.54 53.6013 1259.91 53.9762L1272.64 66.7042C1272.83 66.8887 1272.99 67.1094 1273.09 67.3534C1273.2 67.5974 1273.25 67.8598 1273.25 68.1254C1273.25 68.391 1273.2 68.6543 1273.1 68.9001C1273 69.1459 1272.85 69.3692 1272.67 69.557C1272.48 69.7448 1272.26 69.8933 1272.01 69.9938C1271.76 70.0944 1271.5 70.145 1271.24 70.1427C1270.97 70.1404 1270.71 70.0852 1270.46 69.9804C1270.22 69.8756 1270 69.7232 1269.81 69.5322L1258.5 58.2182L1247.19 69.5322C1247 69.7232 1246.78 69.8756 1246.54 69.9804C1246.29 70.0852 1246.03 70.1404 1245.76 70.1427C1245.5 70.145 1245.24 70.0944 1244.99 69.9938C1244.74 69.8933 1244.52 69.7448 1244.33 69.557C1244.15 69.3692 1244 69.1459 1243.9 68.9001C1243.8 68.6543 1243.75 68.391 1243.75 68.1254C1243.75 67.8598 1243.8 67.5974 1243.91 67.3534C1244.01 67.1094 1244.17 66.8887 1244.36 66.7042L1257.09 53.9762ZM1256.5 56.3902V55.3902H1260.5V56.3902H1256.5Z" fill="black"/>
</svg>
