<svg width="25" height="24" viewBox="0 0 25 24" fill="none" xmlns="http://www.w3.org/2000/svg">
<path d="M4.50696 15H7.27696C7.14431 14.1733 7.07843 13.3373 7.07996 12.5C7.07996 11.63 7.14996 10.79 7.27796 10H4.50696C4.22373 10.8031 4.07934 11.6485 4.07996 12.5C4.07996 13.377 4.22996 14.218 4.50696 15ZM4.94496 16C5.82726 17.6691 7.30512 18.9453 9.08496 19.575C8.38696 18.695 7.82696 17.457 7.47796 16H4.94496ZM18.653 15C18.9362 14.1969 19.0806 13.3515 19.08 12.5C19.08 11.623 18.93 10.782 18.653 10H15.883C16.011 10.79 16.08 11.63 16.08 12.5C16.08 13.37 16.01 14.21 15.882 15H18.653ZM18.215 16H15.682C15.333 17.457 14.772 18.695 14.075 19.575C15.8548 18.9453 17.3326 17.6691 18.215 16ZM8.29196 15H14.868C15.004 14.222 15.08 13.381 15.08 12.5C15.08 11.619 15.004 10.778 14.868 10H8.29196C8.14919 10.8256 8.07826 11.6621 8.07996 12.5C8.07996 13.381 8.15596 14.222 8.29196 15ZM8.50896 16C9.13296 18.4 10.351 20 11.58 20C12.809 20 14.027 18.4 14.651 16H8.50896ZM4.94496 9H7.47796C7.82696 7.543 8.38796 6.305 9.08496 5.425C7.30512 6.05473 5.82726 7.33089 4.94496 9ZM18.215 9C17.3326 7.33089 15.8548 6.05473 14.075 5.425C14.773 6.305 15.333 7.543 15.682 9H18.215ZM8.50896 9H14.651C14.027 6.6 12.809 5 11.58 5C10.351 5 9.13296 6.6 8.50896 9ZM11.58 21C9.32562 21 7.16361 20.1045 5.56955 18.5104C3.97549 16.9163 3.07996 14.7543 3.07996 12.5C3.07996 10.2457 3.97549 8.08365 5.56955 6.48959C7.16361 4.89553 9.32562 4 11.58 4C13.8343 4 15.9963 4.89553 17.5904 6.48959C19.1844 8.08365 20.08 10.2457 20.08 12.5C20.08 14.7543 19.1844 16.9163 17.5904 18.5104C15.9963 20.1045 13.8343 21 11.58 21Z" fill="black"/>
</svg>
