<svg width="26" height="26" viewBox="0 0 26 26" fill="none" xmlns="http://www.w3.org/2000/svg">
<g clip-path="url(#clip0_1_225)">
<g clip-path="url(#clip1_1_225)">
<path d="M18.2787 6.94019C18.2787 6.83066 18.2572 6.72221 18.2152 6.62104C18.1733 6.51987 18.1118 6.42796 18.0343 6.35056C17.9568 6.27317 17.8648 6.2118 17.7636 6.16999C17.6624 6.12817 17.5539 6.10672 17.4444 6.10685H11.3506C11.1296 6.10685 10.9176 6.19465 10.7614 6.35093C10.6051 6.50721 10.5173 6.71917 10.5173 6.94019V7.61727H9.47561V6.94019C9.47561 6.69396 9.52411 6.45014 9.61834 6.22265C9.71257 5.99517 9.85068 5.78847 10.0248 5.61436C10.1989 5.44025 10.4056 5.30214 10.6331 5.20791C10.8606 5.11368 11.1044 5.06519 11.3506 5.06519H17.4444C17.6906 5.06519 17.9344 5.11368 18.1619 5.20791C18.3894 5.30214 18.5961 5.44025 18.7702 5.61436C18.9443 5.78847 19.0824 5.99517 19.1766 6.22265C19.2709 6.45014 19.3194 6.69396 19.3194 6.94019V13.0339C19.3194 13.2802 19.2709 13.524 19.1766 13.7515C19.0824 13.979 18.9443 14.1857 18.7702 14.3598C18.5961 14.5339 18.3894 14.672 18.1619 14.7662C17.9344 14.8604 17.6906 14.9089 17.4444 14.9089H16.7673V13.8673H17.4444C17.6654 13.8673 17.8773 13.7795 18.0336 13.6232C18.1899 13.4669 18.2777 13.2549 18.2777 13.0339L18.2787 6.94019ZM12.6694 9.80477C13.7246 9.80477 14.5798 10.6589 14.5798 11.7141V17.7402C14.5795 18.2467 14.3781 18.7323 14.0199 19.0904C13.6616 19.4484 13.1759 19.6496 12.6694 19.6496H6.64332C6.13693 19.6496 5.65127 19.4484 5.29319 19.0903C4.93511 18.7322 4.73395 18.2466 4.73395 17.7402V11.7131C4.73395 10.6589 5.58811 9.80373 6.64332 9.80373H12.6683L12.6694 9.80477ZM13.5381 11.7141C13.5381 11.6001 13.5156 11.4872 13.472 11.3818C13.4283 11.2765 13.3643 11.1808 13.2836 11.1002C13.2029 11.0196 13.1071 10.9557 13.0017 10.9122C12.8963 10.8686 12.7834 10.8463 12.6694 10.8464H6.64332C6.41319 10.8464 6.19249 10.9379 6.02976 11.1006C5.86703 11.2633 5.77561 11.484 5.77561 11.7141V17.7402C5.77561 18.2194 6.16416 18.6079 6.64332 18.6079H12.6683C13.1475 18.6079 13.5371 18.2194 13.5371 17.7402V11.7131L13.5381 11.7141Z" fill="white"/>
</g>
</g>
<defs>
<clipPath id="clip0_1_225">
<rect width="25" height="25" fill="white" transform="translate(0.0599976 0.390137)"/>
</clipPath>
<clipPath id="clip1_1_225">
<rect width="25" height="25" fill="white" transform="translate(0.0599976 0.390137)"/>
</clipPath>
</defs>
</svg>
