<svg width="24" height="24" viewBox="0 0 24 24" fill="none" xmlns="http://www.w3.org/2000/svg">
<path d="M22.5375 6.675C22.2875 5.725 21.5375 4.975 20.5875 4.7125C18.875 4.25 12 4.25 12 4.25C12 4.25 5.125 4.25 3.4 4.7125C2.45 4.9625 1.7125 5.7125 1.45 6.675C1 8.4 1 12 1 12C1 12 1 15.6 1.4625 17.325C1.7125 18.275 2.4625 19.025 3.4125 19.2875C5.125 19.75 12 19.75 12 19.75C12 19.75 18.875 19.75 20.6 19.2875C21.55 19.0375 22.2875 18.2875 22.55 17.325C23 15.6 23 12 23 12C23 12 23 8.4 22.5375 6.675ZM9.75 15.275V8.725L15.5 12L9.75 15.275Z" fill="#F6F6F6"/>
</svg>
