<svg width="20" height="24" viewBox="0 0 20 24" fill="none" xmlns="http://www.w3.org/2000/svg">
<path fill-rule="evenodd" clip-rule="evenodd" d="M10.25 3C12.0907 2.9992 13.8639 3.85278 15.2157 5.39035C16.5675 6.92793 17.3984 9.03639 17.5426 11.2949C17.6868 13.5533 17.1337 15.7957 15.9937 17.5743C14.8536 19.3529 13.2106 20.5369 11.3924 20.89V14.602H13.0962L13.4212 12H11.3924V10.312C11.3924 9.6 11.6759 8.906 12.5843 8.906H13.5065V6.691C13.5065 6.691 12.6696 6.516 11.8693 6.516C10.1988 6.516 9.10682 7.762 9.10682 10.017V12H7.25189V14.602H9.10845V20.891C7.28926 20.5393 5.64484 19.3559 4.50373 17.577C3.36262 15.7981 2.80883 13.5549 2.953 11.2954C3.09717 9.03589 3.92869 6.92653 5.28142 5.38871C6.63416 3.85089 8.40852 2.99785 10.25 3Z" fill="#F6F6F6"/>
</svg>
