<svg width="24" height="24" viewBox="0 0 24 24" fill="none" xmlns="http://www.w3.org/2000/svg">
<path fill-rule="evenodd" clip-rule="evenodd" d="M11.998 4.00488C14.17 4.00488 14.442 4.01488 15.295 4.05288C16.146 4.09188 16.727 4.22688 17.236 4.42488C17.7701 4.62492 18.2538 4.93964 18.653 5.34688C19.097 5.79188 19.371 6.23788 19.575 6.76388C19.773 7.27288 19.908 7.85388 19.947 8.70488C19.986 9.55788 19.995 9.83088 19.995 12.0029C19.995 14.1749 19.985 14.4469 19.947 15.2999C19.908 16.1509 19.773 16.7329 19.575 17.2409C19.375 17.7749 19.0602 18.2586 18.653 18.6579C18.208 19.1019 17.762 19.3759 17.236 19.5799C16.727 19.7779 16.146 19.9129 15.295 19.9519C14.442 19.9909 14.169 19.9999 11.998 19.9999C9.825 19.9999 9.553 19.9899 8.7 19.9519C7.849 19.9129 7.268 19.7779 6.759 19.5799C6.22494 19.3798 5.74124 19.0651 5.342 18.6579C4.93476 18.2586 4.62003 17.7749 4.42 17.2409C4.222 16.7329 4.087 16.1509 4.048 15.2999C4.01 14.4469 4 14.1739 4 12.0029C4 9.83188 4.01 9.55788 4.048 8.70488C4.087 7.85388 4.222 7.27288 4.42 6.76388C4.62003 6.22982 4.93476 5.74612 5.342 5.34688C5.74124 4.93964 6.22494 4.62492 6.759 4.42488C7.268 4.22688 7.849 4.09188 8.7 4.05288C9.553 4.01388 9.825 4.00488 11.998 4.00488ZM11.998 5.44588C9.862 5.44588 9.609 5.45388 8.766 5.49288C7.986 5.52788 7.563 5.65888 7.281 5.76788C6.907 5.91288 6.641 6.08588 6.361 6.36588C6.081 6.64588 5.908 6.91288 5.763 7.28588C5.653 7.56788 5.523 7.99088 5.488 8.77088C5.449 9.61388 5.441 9.86688 5.441 12.0029C5.441 14.1379 5.449 14.3909 5.488 15.2339C5.523 16.0139 5.653 16.4369 5.763 16.7189C5.908 17.0919 6.081 17.3589 6.361 17.6389C6.641 17.9189 6.907 18.0919 7.281 18.2369C7.563 18.3469 7.986 18.4769 8.766 18.5119C9.609 18.5509 9.862 18.5589 11.998 18.5589C14.133 18.5589 14.386 18.5509 15.229 18.5119C16.009 18.4769 16.432 18.3469 16.714 18.2369C17.087 18.0919 17.354 17.9189 17.634 17.6389C17.914 17.3589 18.087 17.0929 18.232 16.7189C18.342 16.4369 18.472 16.0139 18.507 15.2339C18.546 14.3909 18.554 14.1379 18.554 12.0029C18.554 9.86688 18.546 9.61388 18.507 8.77088C18.472 7.99088 18.341 7.56788 18.232 7.28588C18.1033 6.93872 17.899 6.62448 17.634 6.36588C17.3754 6.10088 17.0612 5.89663 16.714 5.76788C16.432 5.65788 16.009 5.52788 15.229 5.49288C14.386 5.45388 14.133 5.44588 11.998 5.44588ZM11.998 14.6679C12.3524 14.6747 12.7046 14.6109 13.034 14.48C13.3634 14.3491 13.6634 14.1539 13.9164 13.9057C14.1695 13.6575 14.3705 13.3613 14.5077 13.0345C14.645 12.7077 14.7156 12.3568 14.7156 12.0024C14.7156 11.6479 14.645 11.297 14.5077 10.9702C14.3705 10.6434 14.1695 10.3473 13.9164 10.0991C13.6634 9.85087 13.3634 9.65563 13.034 9.52476C12.7046 9.39389 12.3524 9.33002 11.998 9.33688C11.3 9.3504 10.6352 9.63717 10.1463 10.1356C9.65747 10.634 9.38363 11.3043 9.38363 12.0024C9.38363 12.7005 9.65747 13.3708 10.1463 13.8692C10.6352 14.3676 11.3 14.6544 11.998 14.6679ZM11.998 7.89588C12.5427 7.88738 13.0836 7.98732 13.5893 8.18988C14.0949 8.39243 14.5552 8.69356 14.9434 9.07573C15.3316 9.45789 15.6399 9.91346 15.8503 10.4159C16.0607 10.9184 16.1691 11.4577 16.1691 12.0024C16.1691 12.5471 16.0607 13.0864 15.8503 13.5889C15.6399 14.0913 15.3316 14.5469 14.9434 14.929C14.5552 15.3112 14.0949 15.6123 13.5893 15.8149C13.0836 16.0174 12.5427 16.1174 11.998 16.1089C10.92 16.0921 9.89182 15.652 9.13543 14.8837C8.37903 14.1154 7.95508 13.0805 7.95508 12.0024C7.95508 10.9242 8.37903 9.88933 9.13543 9.12104C9.89182 8.35275 10.92 7.91271 11.998 7.89588ZM16 8.99988C15.7348 8.99988 15.4804 8.89453 15.2929 8.70699C15.1054 8.51945 15 8.2651 15 7.99988C15 7.73467 15.1054 7.48031 15.2929 7.29278C15.4804 7.10524 15.7348 6.99988 16 6.99988C16.2652 6.99988 16.5196 7.10524 16.7071 7.29278C16.8946 7.48031 17 7.73467 17 7.99988C17 8.2651 16.8946 8.51945 16.7071 8.70699C16.5196 8.89453 16.2652 8.99988 16 8.99988Z" fill="#F6F6F6"/>
</svg>
