<svg width="20" height="24" viewBox="0 0 20 24" fill="none" xmlns="http://www.w3.org/2000/svg">
<path d="M15.9375 8C15.0755 8 14.2489 7.57857 13.6394 6.82843C13.0299 6.07828 12.6875 5.06087 12.6875 4H11.0625V14C11.0623 14.6604 10.8851 15.3022 10.5584 15.826C10.2317 16.3498 9.77362 16.7263 9.25533 16.897C8.73703 17.0678 8.18744 17.0233 7.69178 16.7705C7.19611 16.5177 6.78208 16.0706 6.51388 15.4987C6.24567 14.9267 6.1383 14.2619 6.20839 13.6072C6.27848 12.9525 6.52214 12.3445 6.90156 11.8776C7.28098 11.4107 7.77498 11.1109 8.30694 11.0247C8.83889 10.9386 9.37909 11.0708 9.84375 11.401V9.23C9.02693 8.91384 8.14982 8.92342 7.33769 9.25736C6.52555 9.59131 5.81991 10.2325 5.32153 11.0895C4.82316 11.9465 4.55752 12.9753 4.56257 14.0292C4.56762 15.083 4.84308 16.1079 5.34963 16.9576C5.85619 17.8073 6.56792 18.4382 7.3832 18.7604C8.19847 19.0825 9.07561 19.0794 9.88935 18.7514C10.7031 18.4234 11.4118 17.7873 11.9143 16.934C12.4168 16.0808 12.6874 15.0539 12.6875 14V8.473C13.5806 9.45823 14.7382 10.0021 15.9375 10V8Z" fill="#F6F6F6"/>
</svg>
