<svg width="31" height="31" viewBox="0 0 31 31" fill="none" xmlns="http://www.w3.org/2000/svg">
<path d="M10.4 10.35C10.4 10.1909 10.4632 10.0383 10.5757 9.92578C10.6883 9.81326 10.8409 9.75005 11 9.75005H20.9C20.9394 9.75005 20.9787 9.7541 21.0174 9.7619C21.035 9.76535 21.0512 9.77195 21.0683 9.7769C21.0889 9.7829 21.1095 9.7877 21.1295 9.79595C21.1494 9.8042 21.1674 9.8156 21.1863 9.8258C21.2018 9.83435 21.218 9.8411 21.2327 9.851C21.2985 9.895 21.3551 9.95152 21.399 10.0173C21.4088 10.0319 21.4154 10.0478 21.4238 10.0629C21.4343 10.082 21.4457 10.1004 21.4541 10.1205C21.4624 10.1403 21.467 10.1612 21.473 10.1816C21.4779 10.1985 21.4846 10.2149 21.4882 10.2324C21.4959 10.2712 21.4999 10.3106 21.5 10.35V20.25C21.5 20.4092 21.4368 20.5618 21.3243 20.6743C21.2117 20.7868 21.0591 20.85 20.9 20.85C20.7409 20.85 20.5883 20.7868 20.4757 20.6743C20.3632 20.5618 20.3 20.4092 20.3 20.25V11.7984L11.4242 20.6742C11.3689 20.7316 11.3026 20.7773 11.2294 20.8087C11.1562 20.8402 11.0775 20.8567 10.9978 20.8574C10.9182 20.8581 10.8392 20.8429 10.7654 20.8127C10.6917 20.7826 10.6247 20.738 10.5684 20.6817C10.512 20.6253 10.4675 20.5584 10.4373 20.4846C10.4071 20.4109 10.392 20.3319 10.3927 20.2522C10.3933 20.1725 10.4099 20.0938 10.4413 20.0206C10.4728 19.9474 10.5185 19.8812 10.5758 19.8258L19.4516 10.95H11C10.8409 10.95 10.6883 10.8868 10.5757 10.7743C10.4632 10.6618 10.4 10.5092 10.4 10.35Z" fill="white"/>
</svg>
